<svg width="512" height="512" viewBox="0 0 512 512" fill="none" xmlns="http://www.w3.org/2000/svg">
<path d="M460.259 376.398L389.517 163.576H389.347C371.151 105.588 316.99 63.5 253.05 63.5C188.94 63.5 134.778 105.673 116.668 163.831H116.583L51.3677 377.843C42.695 413.809 69.9884 448.5 107.06 448.5H178.652C152.464 421.802 135.714 381.924 135.714 337.2L141.751 298.938L103.489 291.966L141.836 284.994C221.505 273.005 285.785 248.943 336.801 220.884C324.982 262.037 303.725 285.334 303.725 285.334C339.607 285.334 364.434 256.935 378.208 235.083L382.12 246.562L376.253 253.364C372.257 257.956 370.301 263.992 370.811 270.029L376.168 337.2C376.168 381.839 359.503 421.802 333.23 448.5H404.822C442.573 448.415 470.037 412.789 460.259 376.398Z" fill="#5D3EB3"/>
<path d="M473.578 373.72L399.402 150.356H399.082C388.531 122.925 370.147 98.4535 346.488 80.7795C319.231 60.4664 286.939 49.75 253.049 49.75C219.078 49.75 186.706 60.4664 159.61 80.7795C135.87 98.5334 117.406 123.005 106.935 150.516H106.456L38.1948 374.76L37.955 375.479C32.9194 396.592 37.7153 418.425 51.1436 435.459C64.572 452.493 84.7146 462.25 106.376 462.25H405.637C427.698 462.25 448 452.253 461.428 434.739C474.857 417.225 479.253 394.993 473.578 373.72ZM441.126 419.145C432.573 430.261 419.704 436.659 405.637 436.659H344.809C364.712 410.667 376.782 375.879 376.782 337.652L371.426 270.155C370.947 264.077 372.945 257.999 376.942 253.361L382.856 246.483L378.94 234.967C365.112 256.96 340.173 285.51 304.125 285.51C304.125 285.51 325.466 262.078 337.296 220.732C285.98 248.962 221.476 273.114 141.465 285.19L102.939 292.228L141.385 299.265L135.311 337.732C135.311 375.959 147.46 410.747 167.283 436.739H106.376C92.6277 436.739 79.8388 430.501 71.2862 419.704C62.8135 408.988 59.7762 395.233 62.8135 381.957L125.399 176.347H125.479L128.277 167.31C136.35 141.239 152.896 117.887 174.876 101.492C197.577 84.5382 224.593 75.5812 253.049 75.5812C281.424 75.5812 308.441 84.5382 331.141 101.492C353.042 117.887 369.668 141.239 377.741 167.23L380.538 176.267H380.938L448.959 380.918C452.396 394.113 449.519 408.108 441.126 419.145Z" fill="white"/>
</svg>
