<svg width="80" height="80" viewBox="0 0 80 80" fill="none" xmlns="http://www.w3.org/2000/svg">
<path d="M77.138 61.8905L64.2758 23.1957H64.2449C60.9366 12.6524 51.089 5 39.4636 5C27.8073 5 17.9597 12.6678 14.6669 23.2421H14.6514L2.79412 62.1533C1.21727 68.6926 6.17971 75 12.92 75H25.9367C21.1752 70.1458 18.1298 62.8953 18.1298 54.7637L19.2274 47.807L12.2707 46.5393L19.2428 45.2716C33.7282 43.0919 45.4154 38.7169 54.691 33.6153C52.5422 41.0976 48.6774 45.3335 48.6774 45.3335C55.2012 45.3335 59.7153 40.1701 62.2197 36.197L62.9308 38.284L61.8642 39.5208C61.1376 40.3556 60.782 41.4532 60.8748 42.5508L61.8487 54.7637C61.8487 62.8799 58.8187 70.1458 54.0417 75H67.0585C73.9224 74.9845 78.9158 68.5071 77.138 61.8905Z" fill="#5D3EB3"/>
</svg>
