<svg version="1.0" xmlns="http://www.w3.org/2000/svg"
 width="512.000000pt" height="512.000000pt" viewBox="0 0 512.000000 512.000000"
 preserveAspectRatio="xMidYMid meet">
<g transform="translate(0.000000,512.000000) scale(0.100000,-0.100000)"
fill="#000000" stroke="none">
<path d="M2301 4344 c-441 -74 -843 -411 -996 -834 -14 -41 -173 -554 -353
-1140 l-326 -1065 0 -111 c-1 -108 0 -112 37 -186 65 -132 186 -224 328 -248
40 -7 180 -10 371 -8 l307 3 -44 64 c-142 204 -239 489 -265 777 -11 117 -10
130 21 323 17 111 30 203 28 206 -3 2 -88 19 -189 38 -125 23 -177 36 -160 41
14 3 129 24 255 46 548 96 781 150 1095 252 266 86 484 174 738 298 258 126
241 134 159 -74 -54 -138 -146 -306 -214 -396 l-42 -55 31 -3 c49 -5 168 26
249 64 140 67 266 178 385 339 32 44 63 81 69 83 5 2 17 -20 27 -49 l18 -53
-38 -45 c-46 -55 -63 -84 -73 -129 -4 -19 5 -184 22 -395 21 -251 28 -390 24
-452 -21 -289 -110 -567 -254 -792 -28 -44 -51 -83 -51 -86 0 -11 599 -8 664
3 142 23 269 118 334 248 33 68 37 84 40 171 l4 96 -375 1125 c-205 619 -390
1161 -411 1204 -58 126 -161 271 -266 376 -195 196 -439 322 -703 365 -113 18
-333 18 -446 -1z"/>
</g>
</svg>
