<svg width="2009" height="1033" viewBox="0 0 2009 1033" fill="none" xmlns="http://www.w3.org/2000/svg">
<g clip-path="url(#clip0)">
<rect width="2009" height="1033" fill="#5D3EB2"/>
<path d="M2207.5 895.5L1918.5 796.5L2063.5 1100.5L2207.5 895.5Z" stroke="#422D80" stroke-miterlimit="1" stroke-linejoin="round"/>
<path d="M2207.5 895.5L2175.5 791.5L1918.5 796.5L2207.5 895.5Z" stroke="#422D80" stroke-miterlimit="1" stroke-linejoin="round"/>
<path d="M2202.5 684.5L1983.5 688.5L2175.5 791.5L2202.5 684.5Z" stroke="#422D80" stroke-miterlimit="1" stroke-linejoin="round"/>
<path d="M2202.5 684.5L2167.5 620.5L1983.5 688.5L2202.5 684.5Z" stroke="#422D80" stroke-miterlimit="1" stroke-linejoin="round"/>
<path d="M2063.5 1100.5L1918.5 796.5L1854.5 968.5L2063.5 1100.5Z" stroke="#422D80" stroke-miterlimit="1" stroke-linejoin="round"/>
<path d="M2167.5 620.5L1994.5 640.5L1983.5 688.5L2167.5 620.5Z" stroke="#422D80" stroke-miterlimit="1" stroke-linejoin="round"/>
<path d="M2175.5 791.5L1983.5 688.5L1918.5 796.5L2175.5 791.5Z" stroke="#422D80" stroke-miterlimit="1" stroke-linejoin="round"/>
<path d="M2167.5 620.5L2063.5 526.5L1994.5 640.5L2167.5 620.5Z" stroke="#422D80" stroke-miterlimit="1" stroke-linejoin="round"/>
<path d="M1918.5 796.5L1854.5 880.5V968.5L1918.5 796.5Z" stroke="#422D80" stroke-miterlimit="1" stroke-linejoin="round"/>
<path d="M2063.5 1100.5L1854.5 968.5L1876.5 1052.5L2063.5 1100.5Z" stroke="#422D80" stroke-miterlimit="1" stroke-linejoin="round"/>
<path d="M2063.5 526.5L2012.5 546.5L1994.5 640.5L2063.5 526.5Z" stroke="#422D80" stroke-miterlimit="1" stroke-linejoin="round"/>
<path d="M2114.5 221.5L2005.5 209.5L2081.5 339.5L2114.5 221.5Z" stroke="#422D80" stroke-miterlimit="1" stroke-linejoin="round"/>
<path d="M2114.5 221.5L2050.5 101.5L2005.5 209.5L2114.5 221.5Z" stroke="#422D80" stroke-miterlimit="1" stroke-linejoin="round"/>
<path d="M2081.5 339.5L1908.5 293.5L2070.5 357.5L2081.5 339.5Z" stroke="#422D80" stroke-miterlimit="1" stroke-linejoin="round"/>
<path d="M2081.5 339.5L2005.5 209.5L1908.5 293.5L2081.5 339.5Z" stroke="#422D80" stroke-miterlimit="1" stroke-linejoin="round"/>
<path d="M2070.5 357.5L1908.5 293.5L2015.5 394.5L2070.5 357.5Z" stroke="#422D80" stroke-miterlimit="1" stroke-linejoin="round"/>
<path d="M2015.5 394.5L1919.5 445.5L2012.5 546.5L2015.5 394.5Z" stroke="#422D80" stroke-miterlimit="1" stroke-linejoin="round"/>
<path d="M2050.5 101.5L1925.5 192.5L2005.5 209.5L2050.5 101.5Z" stroke="#422D80" stroke-miterlimit="1" stroke-linejoin="round"/>
<path d="M2050.5 101.5L2032.5 17.5L1979.5 5.5L2050.5 101.5Z" stroke="#422D80" stroke-miterlimit="1" stroke-linejoin="round"/>
<path d="M2053.5 -32.5L1979.5 5.5L2049.5 -9.5L2053.5 -32.5Z" stroke="#422D80" stroke-miterlimit="1" stroke-linejoin="round"/>
<path d="M2053.5 -32.5L1966.5 -78.5L1979.5 5.5L2053.5 -32.5Z" stroke="#422D80" stroke-miterlimit="1" stroke-linejoin="round"/>
<path d="M2012.5 546.5L1919.5 445.5L1922.5 524.5L2012.5 546.5Z" stroke="#422D80" stroke-miterlimit="1" stroke-linejoin="round"/>
<path d="M2050.5 101.5L1979.5 5.5L1925.5 192.5L2050.5 101.5Z" stroke="#422D80" stroke-miterlimit="1" stroke-linejoin="round"/>
<path d="M2049.5 -9.5L1979.5 5.5L2032.5 17.5L2049.5 -9.5Z" stroke="#422D80" stroke-miterlimit="1" stroke-linejoin="round"/>
<path d="M1979.5 5.5L1836.5 108.5L1925.5 192.5L1979.5 5.5Z" stroke="#422D80" stroke-miterlimit="1" stroke-linejoin="round"/>
<path d="M2015.5 394.5L1908.5 293.5L1898.5 375.5L2015.5 394.5Z" stroke="#422D80" stroke-miterlimit="1" stroke-linejoin="round"/>
<path d="M2005.5 209.5L1925.5 192.5L1908.5 293.5L2005.5 209.5Z" stroke="#422D80" stroke-miterlimit="1" stroke-linejoin="round"/>
<path d="M2012.5 546.5L1922.5 524.5L1994.5 640.5L2012.5 546.5Z" stroke="#422D80" stroke-miterlimit="1" stroke-linejoin="round"/>
<path d="M2015.5 394.5L1898.5 375.5L1919.5 445.5L2015.5 394.5Z" stroke="#422D80" stroke-miterlimit="1" stroke-linejoin="round"/>
<path d="M1994.5 640.5L1922.5 524.5L1953.5 661.5L1994.5 640.5Z" stroke="#422D80" stroke-miterlimit="1" stroke-linejoin="round"/>
<path d="M1953.5 661.5L1922.5 524.5L1868.5 612.5L1953.5 661.5Z" stroke="#422D80" stroke-miterlimit="1" stroke-linejoin="round"/>
<path d="M1994.5 640.5L1953.5 661.5L1983.5 688.5L1994.5 640.5Z" stroke="#422D80" stroke-miterlimit="1" stroke-linejoin="round"/>
<path d="M1979.5 5.5L1824.5 39.5L1836.5 108.5L1979.5 5.5Z" stroke="#422D80" stroke-miterlimit="1" stroke-linejoin="round"/>
<path d="M1979.5 5.5L1966.5 -78.5L1903.5 -61.5L1979.5 5.5Z" stroke="#422D80" stroke-miterlimit="1" stroke-linejoin="round"/>
<path d="M1983.5 688.5L1908.5 676.5L1918.5 796.5L1983.5 688.5Z" stroke="#422D80" stroke-miterlimit="1" stroke-linejoin="round"/>
<path d="M1983.5 688.5L1953.5 661.5L1908.5 676.5L1983.5 688.5Z" stroke="#422D80" stroke-miterlimit="1" stroke-linejoin="round"/>
<path d="M1979.5 5.5L1903.5 -61.5L1824.5 39.5L1979.5 5.5Z" stroke="#422D80" stroke-miterlimit="1" stroke-linejoin="round"/>
<path d="M1953.5 661.5L1868.5 612.5L1908.5 676.5L1953.5 661.5Z" stroke="#422D80" stroke-miterlimit="1" stroke-linejoin="round"/>
<path d="M1908.5 676.5L1820.5 659.5L1855.5 811.5L1908.5 676.5Z" stroke="#422D80" stroke-miterlimit="1" stroke-linejoin="round"/>
<path d="M1918.5 796.5L1908.5 676.5L1855.5 811.5L1918.5 796.5Z" stroke="#422D80" stroke-miterlimit="1" stroke-linejoin="round"/>
<path d="M1918.5 796.5L1855.5 811.5L1854.5 880.5L1918.5 796.5Z" stroke="#422D80" stroke-miterlimit="1" stroke-linejoin="round"/>
<path d="M1919.5 445.5L1898.5 375.5L1862.5 439.5L1919.5 445.5Z" stroke="#422D80" stroke-miterlimit="1" stroke-linejoin="round"/>
<path d="M1922.5 524.5L1919.5 445.5L1862.5 439.5L1922.5 524.5Z" stroke="#422D80" stroke-miterlimit="1" stroke-linejoin="round"/>
<path d="M1925.5 192.5L1752.5 181.5L1908.5 293.5L1925.5 192.5Z" stroke="#422D80" stroke-miterlimit="1" stroke-linejoin="round"/>
<path d="M1925.5 192.5L1836.5 108.5L1752.5 181.5L1925.5 192.5Z" stroke="#422D80" stroke-miterlimit="1" stroke-linejoin="round"/>
<path d="M1922.5 524.5L1786.5 448.5L1868.5 612.5L1922.5 524.5Z" stroke="#422D80" stroke-miterlimit="1" stroke-linejoin="round"/>
<path d="M1922.5 524.5L1862.5 439.5L1786.5 448.5L1922.5 524.5Z" stroke="#422D80" stroke-miterlimit="1" stroke-linejoin="round"/>
<path d="M1908.5 293.5L1752.5 181.5L1746.5 300.5L1908.5 293.5Z" stroke="#422D80" stroke-miterlimit="1" stroke-linejoin="round"/>
<path d="M1903.5 -61.5L1785.5 -43.5L1824.5 39.5L1903.5 -61.5Z" stroke="#422D80" stroke-miterlimit="1" stroke-linejoin="round"/>
<path d="M1908.5 293.5L1746.5 300.5L1898.5 375.5L1908.5 293.5Z" stroke="#422D80" stroke-miterlimit="1" stroke-linejoin="round"/>
<path d="M1908.5 676.5L1868.5 612.5L1820.5 659.5L1908.5 676.5Z" stroke="#422D80" stroke-miterlimit="1" stroke-linejoin="round"/>
<path d="M1855.5 811.5L1820.5 659.5L1751.5 730.5L1855.5 811.5Z" stroke="#422D80" stroke-miterlimit="1" stroke-linejoin="round"/>
<path d="M1868.5 612.5L1786.5 448.5L1798.5 631.5L1868.5 612.5Z" stroke="#422D80" stroke-miterlimit="1" stroke-linejoin="round"/>
<path d="M1854.5 968.5V880.5L1824.5 894.5L1854.5 968.5Z" stroke="#422D80" stroke-miterlimit="1" stroke-linejoin="round"/>
<path d="M1898.5 375.5L1786.5 448.5L1862.5 439.5L1898.5 375.5Z" stroke="#422D80" stroke-miterlimit="1" stroke-linejoin="round"/>
<path d="M1898.5 375.5L1746.5 300.5L1786.5 448.5L1898.5 375.5Z" stroke="#422D80" stroke-miterlimit="1" stroke-linejoin="round"/>
<path d="M1798.5 631.5L1786.5 448.5L1705.5 572.5L1798.5 631.5Z" stroke="#422D80" stroke-miterlimit="1" stroke-linejoin="round"/>
<path d="M1855.5 811.5L1811.5 839.5L1854.5 880.5L1855.5 811.5Z" stroke="#422D80" stroke-miterlimit="1" stroke-linejoin="round"/>
<path d="M1876.5 1052.5L1854.5 968.5L1728.5 1072.5L1876.5 1052.5Z" stroke="#422D80" stroke-miterlimit="1" stroke-linejoin="round"/>
<path d="M1868.5 612.5L1798.5 631.5L1820.5 659.5L1868.5 612.5Z" stroke="#422D80" stroke-miterlimit="1" stroke-linejoin="round"/>
<path d="M1855.5 811.5L1747.5 736.5L1811.5 839.5L1855.5 811.5Z" stroke="#422D80" stroke-miterlimit="1" stroke-linejoin="round"/>
<path d="M1855.5 811.5L1751.5 730.5L1747.5 736.5L1855.5 811.5Z" stroke="#422D80" stroke-miterlimit="1" stroke-linejoin="round"/>
<path d="M1824.5 39.5L1785.5 -43.5L1788.5 34.5L1824.5 39.5Z" stroke="#422D80" stroke-miterlimit="1" stroke-linejoin="round"/>
<path d="M1854.5 880.5L1811.5 839.5L1824.5 894.5L1854.5 880.5Z" stroke="#422D80" stroke-miterlimit="1" stroke-linejoin="round"/>
<path d="M1854.5 968.5L1824.5 894.5L1689.5 891.5L1854.5 968.5Z" stroke="#422D80" stroke-miterlimit="1" stroke-linejoin="round"/>
<path d="M1854.5 968.5L1689.5 891.5L1728.5 1072.5L1854.5 968.5Z" stroke="#422D80" stroke-miterlimit="1" stroke-linejoin="round"/>
<path d="M1786.5 448.5L1746.5 300.5L1750.5 444.5L1786.5 448.5Z" stroke="#422D80" stroke-miterlimit="1" stroke-linejoin="round"/>
<path d="M1824.5 894.5L1737.5 864.5L1689.5 891.5L1824.5 894.5Z" stroke="#422D80" stroke-miterlimit="1" stroke-linejoin="round"/>
<path d="M1836.5 108.5L1824.5 39.5L1788.5 34.5L1836.5 108.5Z" stroke="#422D80" stroke-miterlimit="1" stroke-linejoin="round"/>
<path d="M1836.5 108.5L1788.5 34.5L1705.5 94.5L1836.5 108.5Z" stroke="#422D80" stroke-miterlimit="1" stroke-linejoin="round"/>
<path d="M1836.5 108.5L1705.5 94.5L1752.5 181.5L1836.5 108.5Z" stroke="#422D80" stroke-miterlimit="1" stroke-linejoin="round"/>
<path d="M1786.5 448.5L1750.5 444.5L1705.5 572.5L1786.5 448.5Z" stroke="#422D80" stroke-miterlimit="1" stroke-linejoin="round"/>
<path d="M1824.5 894.5L1811.5 839.5L1737.5 864.5L1824.5 894.5Z" stroke="#422D80" stroke-miterlimit="1" stroke-linejoin="round"/>
<path d="M1752.5 181.5L1705.5 216.5L1746.5 300.5L1752.5 181.5Z" stroke="#422D80" stroke-miterlimit="1" stroke-linejoin="round"/>
<path d="M1811.5 839.5L1747.5 736.5L1737.5 864.5L1811.5 839.5Z" stroke="#422D80" stroke-miterlimit="1" stroke-linejoin="round"/>
<path d="M1820.5 659.5L1798.5 631.5L1751.5 730.5L1820.5 659.5Z" stroke="#422D80" stroke-miterlimit="1" stroke-linejoin="round"/>
<path d="M1750.5 444.5L1746.5 300.5H1698.5L1750.5 444.5Z" stroke="#422D80" stroke-miterlimit="1" stroke-linejoin="round"/>
<path d="M1788.5 34.5L1785.5 -43.5L1735.5 -44.5L1788.5 34.5Z" stroke="#422D80" stroke-miterlimit="1" stroke-linejoin="round"/>
<path d="M1788.5 34.5L1735.5 -44.5L1707.5 8.5L1788.5 34.5Z" stroke="#422D80" stroke-miterlimit="1" stroke-linejoin="round"/>
<path d="M1798.5 631.5L1688.5 601.5L1751.5 730.5L1798.5 631.5Z" stroke="#422D80" stroke-miterlimit="1" stroke-linejoin="round"/>
<path d="M1798.5 631.5L1705.5 572.5L1688.5 601.5L1798.5 631.5Z" stroke="#422D80" stroke-miterlimit="1" stroke-linejoin="round"/>
<path d="M1752.5 181.5L1705.5 94.5L1709.5 172.5L1752.5 181.5Z" stroke="#422D80" stroke-miterlimit="1" stroke-linejoin="round"/>
<path d="M1788.5 34.5L1707.5 8.5L1705.5 94.5L1788.5 34.5Z" stroke="#422D80" stroke-miterlimit="1" stroke-linejoin="round"/>
<path d="M1698.5 300.5L1607.5 290.5L1576.5 488.5L1698.5 300.5Z" stroke="#422D80" stroke-miterlimit="1" stroke-linejoin="round"/>
<path d="M1707.5 8.5L1679.5 26.5L1705.5 94.5L1707.5 8.5Z" stroke="#422D80" stroke-miterlimit="1" stroke-linejoin="round"/>
<path d="M1728.5 1072.5L1586.5 967.5L1315.5 1109.5L1728.5 1072.5Z" stroke="#422D80" stroke-miterlimit="1" stroke-linejoin="round"/>
<path d="M1728.5 1072.5L1689.5 891.5L1586.5 967.5L1728.5 1072.5Z" stroke="#422D80" stroke-miterlimit="1" stroke-linejoin="round"/>
<path d="M1737.5 864.5L1606.5 771.5L1689.5 891.5L1737.5 864.5Z" stroke="#422D80" stroke-miterlimit="1" stroke-linejoin="round"/>
<path d="M1746.5 300.5L1705.5 216.5L1698.5 300.5H1746.5Z" stroke="#422D80" stroke-miterlimit="1" stroke-linejoin="round"/>
<path d="M1747.5 736.5L1606.5 771.5L1737.5 864.5L1747.5 736.5Z" stroke="#422D80" stroke-miterlimit="1" stroke-linejoin="round"/>
<path d="M1750.5 444.5L1576.5 488.5L1705.5 572.5L1750.5 444.5Z" stroke="#422D80" stroke-miterlimit="1" stroke-linejoin="round"/>
<path d="M1750.5 444.5L1698.5 300.5L1576.5 488.5L1750.5 444.5Z" stroke="#422D80" stroke-miterlimit="1" stroke-linejoin="round"/>
<path d="M1751.5 730.5L1618.5 696.5L1747.5 736.5L1751.5 730.5Z" stroke="#422D80" stroke-miterlimit="1" stroke-linejoin="round"/>
<path d="M1751.5 730.5L1688.5 601.5L1618.5 696.5L1751.5 730.5Z" stroke="#422D80" stroke-miterlimit="1" stroke-linejoin="round"/>
<path d="M1752.5 181.5L1709.5 172.5L1705.5 216.5L1752.5 181.5Z" stroke="#422D80" stroke-miterlimit="1" stroke-linejoin="round"/>
<path d="M1747.5 736.5L1618.5 696.5L1606.5 771.5L1747.5 736.5Z" stroke="#422D80" stroke-miterlimit="1" stroke-linejoin="round"/>
<path d="M1735.5 -44.5L1729.5 -64.5L1707.5 8.5L1735.5 -44.5Z" stroke="#422D80" stroke-miterlimit="1" stroke-linejoin="round"/>
<path d="M1729.5 -64.5L1647.5 -94.5L1707.5 8.5L1729.5 -64.5Z" stroke="#422D80" stroke-miterlimit="1" stroke-linejoin="round"/>
<path d="M1705.5 216.5L1645.5 241.5L1698.5 300.5L1705.5 216.5Z" stroke="#422D80" stroke-miterlimit="1" stroke-linejoin="round"/>
<path d="M1705.5 94.5L1679.5 26.5L1632.5 112.5L1705.5 94.5Z" stroke="#422D80" stroke-miterlimit="1" stroke-linejoin="round"/>
<path d="M1707.5 8.5L1647.5 -94.5L1679.5 26.5L1707.5 8.5Z" stroke="#422D80" stroke-miterlimit="1" stroke-linejoin="round"/>
<path d="M1709.5 172.5L1705.5 94.5L1632.5 112.5L1709.5 172.5Z" stroke="#422D80" stroke-miterlimit="1" stroke-linejoin="round"/>
<path d="M1709.5 172.5L1645.5 241.5L1705.5 216.5L1709.5 172.5Z" stroke="#422D80" stroke-miterlimit="1" stroke-linejoin="round"/>
<path d="M1709.5 172.5L1632.5 112.5L1645.5 241.5L1709.5 172.5Z" stroke="#422D80" stroke-miterlimit="1" stroke-linejoin="round"/>
<path d="M1705.5 572.5L1576.5 488.5L1688.5 601.5L1705.5 572.5Z" stroke="#422D80" stroke-miterlimit="1" stroke-linejoin="round"/>
<path d="M1688.5 601.5L1576.5 488.5L1537.5 536.5L1688.5 601.5Z" stroke="#422D80" stroke-miterlimit="1" stroke-linejoin="round"/>
<path d="M1698.5 300.5L1645.5 241.5L1607.5 290.5L1698.5 300.5Z" stroke="#422D80" stroke-miterlimit="1" stroke-linejoin="round"/>
<path d="M1586.5 967.5L1464.5 953.5L1315.5 1109.5L1586.5 967.5Z" stroke="#422D80" stroke-miterlimit="1" stroke-linejoin="round"/>
<path d="M1679.5 26.5L1647.5 -94.5L1595.5 -96.5L1679.5 26.5Z" stroke="#422D80" stroke-miterlimit="1" stroke-linejoin="round"/>
<path d="M1688.5 601.5L1537.5 536.5L1560.5 653.5L1688.5 601.5Z" stroke="#422D80" stroke-miterlimit="1" stroke-linejoin="round"/>
<path d="M1688.5 601.5L1560.5 653.5L1618.5 696.5L1688.5 601.5Z" stroke="#422D80" stroke-miterlimit="1" stroke-linejoin="round"/>
<path d="M1689.5 891.5L1606.5 771.5L1586.5 967.5L1689.5 891.5Z" stroke="#422D80" stroke-miterlimit="1" stroke-linejoin="round"/>
<path d="M1606.5 771.5L1517.5 792.5L1586.5 967.5L1606.5 771.5Z" stroke="#422D80" stroke-miterlimit="1" stroke-linejoin="round"/>
<path d="M1679.5 26.5L1595.5 -96.5L1545.5 -87.5L1679.5 26.5Z" stroke="#422D80" stroke-miterlimit="1" stroke-linejoin="round"/>
<path d="M1679.5 26.5L1545.5 -87.5L1509.5 63.5L1679.5 26.5Z" stroke="#422D80" stroke-miterlimit="1" stroke-linejoin="round"/>
<path d="M1679.5 26.5L1509.5 63.5L1632.5 112.5L1679.5 26.5Z" stroke="#422D80" stroke-miterlimit="1" stroke-linejoin="round"/>
<path d="M1607.5 290.5L1469.5 440.5L1576.5 488.5L1607.5 290.5Z" stroke="#422D80" stroke-miterlimit="1" stroke-linejoin="round"/>
<path d="M1645.5 241.5L1632.5 112.5L1540.5 210.5L1645.5 241.5Z" stroke="#422D80" stroke-miterlimit="1" stroke-linejoin="round"/>
<path d="M1645.5 241.5L1540.5 210.5L1607.5 290.5L1645.5 241.5Z" stroke="#422D80" stroke-miterlimit="1" stroke-linejoin="round"/>
<path d="M1632.5 112.5L1509.5 63.5L1540.5 210.5L1632.5 112.5Z" stroke="#422D80" stroke-miterlimit="1" stroke-linejoin="round"/>
<path d="M1517.5 792.5L1436.5 892.5L1464.5 953.5L1517.5 792.5Z" stroke="#422D80" stroke-miterlimit="1" stroke-linejoin="round"/>
<path d="M1586.5 967.5L1517.5 792.5L1464.5 953.5L1586.5 967.5Z" stroke="#422D80" stroke-miterlimit="1" stroke-linejoin="round"/>
<path d="M1606.5 771.5L1560.5 653.5L1517.5 792.5L1606.5 771.5Z" stroke="#422D80" stroke-miterlimit="1" stroke-linejoin="round"/>
<path d="M1607.5 290.5L1462.5 265.5L1469.5 440.5L1607.5 290.5Z" stroke="#422D80" stroke-miterlimit="1" stroke-linejoin="round"/>
<path d="M1618.5 696.5L1560.5 653.5L1606.5 771.5L1618.5 696.5Z" stroke="#422D80" stroke-miterlimit="1" stroke-linejoin="round"/>
<path d="M1607.5 290.5L1540.5 210.5L1462.5 265.5L1607.5 290.5Z" stroke="#422D80" stroke-miterlimit="1" stroke-linejoin="round"/>
<path d="M1576.5 488.5L1526.5 518.5L1537.5 536.5L1576.5 488.5Z" stroke="#422D80" stroke-miterlimit="1" stroke-linejoin="round"/>
<path d="M1545.5 -87.5L1422.5 -38.5L1509.5 63.5L1545.5 -87.5Z" stroke="#422D80" stroke-miterlimit="1" stroke-linejoin="round"/>
<path d="M1576.5 488.5L1469.5 440.5L1526.5 518.5L1576.5 488.5Z" stroke="#422D80" stroke-miterlimit="1" stroke-linejoin="round"/>
<path d="M1540.5 210.5L1509.5 63.5L1399.5 126.5L1540.5 210.5Z" stroke="#422D80" stroke-miterlimit="1" stroke-linejoin="round"/>
<path d="M1560.5 653.5L1537.5 536.5L1229.5 516.5L1560.5 653.5Z" stroke="#422D80" stroke-miterlimit="1" stroke-linejoin="round"/>
<path d="M1560.5 653.5L1229.5 516.5L1517.5 792.5L1560.5 653.5Z" stroke="#422D80" stroke-miterlimit="1" stroke-linejoin="round"/>
<path d="M1469.5 440.5L1462.5 265.5L1401.5 298.5L1469.5 440.5Z" stroke="#422D80" stroke-miterlimit="1" stroke-linejoin="round"/>
<path d="M1537.5 536.5L1526.5 518.5L1229.5 516.5L1537.5 536.5Z" stroke="#422D80" stroke-miterlimit="1" stroke-linejoin="round"/>
<path d="M1540.5 210.5L1399.5 126.5L1462.5 265.5L1540.5 210.5Z" stroke="#422D80" stroke-miterlimit="1" stroke-linejoin="round"/>
<path d="M1517.5 792.5L1229.5 516.5L1292.5 905.5L1517.5 792.5Z" stroke="#422D80" stroke-miterlimit="1" stroke-linejoin="round"/>
<path d="M1469.5 440.5L1331.5 413.5L1229.5 516.5L1469.5 440.5Z" stroke="#422D80" stroke-miterlimit="1" stroke-linejoin="round"/>
<path d="M1526.5 518.5L1469.5 440.5L1229.5 516.5L1526.5 518.5Z" stroke="#422D80" stroke-miterlimit="1" stroke-linejoin="round"/>
<path d="M1517.5 792.5L1292.5 905.5L1436.5 892.5L1517.5 792.5Z" stroke="#422D80" stroke-miterlimit="1" stroke-linejoin="round"/>
<path d="M1292.5 905.5L1229.5 516.5L1159.5 838.5L1292.5 905.5Z" stroke="#422D80" stroke-miterlimit="1" stroke-linejoin="round"/>
<path d="M1509.5 63.5L1422.5 -38.5L1362.5 81.5L1509.5 63.5Z" stroke="#422D80" stroke-miterlimit="1" stroke-linejoin="round"/>
<path d="M1509.5 63.5L1362.5 81.5L1399.5 126.5L1509.5 63.5Z" stroke="#422D80" stroke-miterlimit="1" stroke-linejoin="round"/>
<path d="M1462.5 265.5L1343.5 237.5L1401.5 298.5L1462.5 265.5Z" stroke="#422D80" stroke-miterlimit="1" stroke-linejoin="round"/>
<path d="M1462.5 265.5L1399.5 126.5L1343.5 237.5L1462.5 265.5Z" stroke="#422D80" stroke-miterlimit="1" stroke-linejoin="round"/>
<path d="M1464.5 953.5L1292.5 905.5L1315.5 1109.5L1464.5 953.5Z" stroke="#422D80" stroke-miterlimit="1" stroke-linejoin="round"/>
<path d="M1469.5 440.5L1344.5 396.5L1331.5 413.5L1469.5 440.5Z" stroke="#422D80" stroke-miterlimit="1" stroke-linejoin="round"/>
<path d="M1469.5 440.5L1401.5 298.5L1344.5 396.5L1469.5 440.5Z" stroke="#422D80" stroke-miterlimit="1" stroke-linejoin="round"/>
<path d="M1464.5 953.5L1436.5 892.5L1292.5 905.5L1464.5 953.5Z" stroke="#422D80" stroke-miterlimit="1" stroke-linejoin="round"/>
<path d="M1401.5 298.5L1345.5 289.5L1344.5 396.5L1401.5 298.5Z" stroke="#422D80" stroke-miterlimit="1" stroke-linejoin="round"/>
<path d="M1422.5 -38.5L1359.5 -82.5L1362.5 81.5L1422.5 -38.5Z" stroke="#422D80" stroke-miterlimit="1" stroke-linejoin="round"/>
<path d="M1399.5 126.5L1274.5 114.5L1343.5 237.5L1399.5 126.5Z" stroke="#422D80" stroke-miterlimit="1" stroke-linejoin="round"/>
<path d="M1401.5 298.5L1343.5 237.5L1345.5 289.5L1401.5 298.5Z" stroke="#422D80" stroke-miterlimit="1" stroke-linejoin="round"/>
<path d="M1362.5 81.5L1359.5 -82.5L1221.5 -73.5L1362.5 81.5Z" stroke="#422D80" stroke-miterlimit="1" stroke-linejoin="round"/>
<path d="M1399.5 126.5L1362.5 81.5L1274.5 114.5L1399.5 126.5Z" stroke="#422D80" stroke-miterlimit="1" stroke-linejoin="round"/>
<path d="M1221.5 -73.5L1180.5 -12.5L1197.5 63.5L1221.5 -73.5Z" stroke="#422D80" stroke-miterlimit="1" stroke-linejoin="round"/>
<path d="M1229.5 516.5L1050.5 690.5L1159.5 838.5L1229.5 516.5Z" stroke="#422D80" stroke-miterlimit="1" stroke-linejoin="round"/>
<path d="M1315.5 1109.5L1292.5 905.5L1213.5 1071.5L1315.5 1109.5Z" stroke="#422D80" stroke-miterlimit="1" stroke-linejoin="round"/>
<path d="M1345.5 289.5L1305.5 395.5L1344.5 396.5L1345.5 289.5Z" stroke="#422D80" stroke-miterlimit="1" stroke-linejoin="round"/>
<path d="M1362.5 81.5L1197.5 63.5L1274.5 114.5L1362.5 81.5Z" stroke="#422D80" stroke-miterlimit="1" stroke-linejoin="round"/>
<path d="M1362.5 81.5L1221.5 -73.5L1197.5 63.5L1362.5 81.5Z" stroke="#422D80" stroke-miterlimit="1" stroke-linejoin="round"/>
<path d="M1305.5 395.5L1205.5 437.5L1229.5 516.5L1305.5 395.5Z" stroke="#422D80" stroke-miterlimit="1" stroke-linejoin="round"/>
<path d="M1331.5 413.5L1305.5 395.5L1229.5 516.5L1331.5 413.5Z" stroke="#422D80" stroke-miterlimit="1" stroke-linejoin="round"/>
<path d="M1343.5 237.5L1274.5 114.5L1153.5 263.5L1343.5 237.5Z" stroke="#422D80" stroke-miterlimit="1" stroke-linejoin="round"/>
<path d="M1345.5 289.5L1223.5 378.5L1305.5 395.5L1345.5 289.5Z" stroke="#422D80" stroke-miterlimit="1" stroke-linejoin="round"/>
<path d="M1345.5 289.5L1343.5 237.5L1153.5 263.5L1345.5 289.5Z" stroke="#422D80" stroke-miterlimit="1" stroke-linejoin="round"/>
<path d="M1345.5 289.5L1153.5 263.5L1223.5 378.5L1345.5 289.5Z" stroke="#422D80" stroke-miterlimit="1" stroke-linejoin="round"/>
<path d="M1344.5 396.5L1305.5 395.5L1331.5 413.5L1344.5 396.5Z" stroke="#422D80" stroke-miterlimit="1" stroke-linejoin="round"/>
<path d="M1229.5 516.5L1067.5 582.5L1050.5 690.5L1229.5 516.5Z" stroke="#422D80" stroke-miterlimit="1" stroke-linejoin="round"/>
<path d="M1229.5 516.5L1112.5 527.5L1067.5 582.5L1229.5 516.5Z" stroke="#422D80" stroke-miterlimit="1" stroke-linejoin="round"/>
<path d="M1305.5 395.5L1223.5 378.5L1205.5 437.5L1305.5 395.5Z" stroke="#422D80" stroke-miterlimit="1" stroke-linejoin="round"/>
<path d="M1292.5 905.5L1159.5 838.5L1213.5 1071.5L1292.5 905.5Z" stroke="#422D80" stroke-miterlimit="1" stroke-linejoin="round"/>
<path d="M1274.5 114.5L1197.5 63.5L1105.5 103.5L1274.5 114.5Z" stroke="#422D80" stroke-miterlimit="1" stroke-linejoin="round"/>
<path d="M1274.5 114.5L1105.5 103.5L1153.5 263.5L1274.5 114.5Z" stroke="#422D80" stroke-miterlimit="1" stroke-linejoin="round"/>
<path d="M1153.5 263.5L1105.5 103.5L1078.5 210.5L1153.5 263.5Z" stroke="#422D80" stroke-miterlimit="1" stroke-linejoin="round"/>
<path d="M1213.5 1071.5L1159.5 838.5L977.5 1016.5L1213.5 1071.5Z" stroke="#422D80" stroke-miterlimit="1" stroke-linejoin="round"/>
<path d="M1223.5 378.5L1153.5 263.5L1143.5 423.5L1223.5 378.5Z" stroke="#422D80" stroke-miterlimit="1" stroke-linejoin="round"/>
<path d="M1223.5 378.5L1185.5 423.5L1205.5 437.5L1223.5 378.5Z" stroke="#422D80" stroke-miterlimit="1" stroke-linejoin="round"/>
<path d="M1229.5 516.5L1205.5 437.5L1112.5 527.5L1229.5 516.5Z" stroke="#422D80" stroke-miterlimit="1" stroke-linejoin="round"/>
<path d="M1205.5 437.5L1143.5 423.5L1112.5 527.5L1205.5 437.5Z" stroke="#422D80" stroke-miterlimit="1" stroke-linejoin="round"/>
<path d="M1223.5 378.5L1143.5 423.5H1185.5L1223.5 378.5Z" stroke="#422D80" stroke-miterlimit="1" stroke-linejoin="round"/>
<path d="M1205.5 437.5L1185.5 423.5H1143.5L1205.5 437.5Z" stroke="#422D80" stroke-miterlimit="1" stroke-linejoin="round"/>
<path d="M1213.5 1071.5L977.5 1016.5L1005.5 1134.5L1213.5 1071.5Z" stroke="#422D80" stroke-miterlimit="1" stroke-linejoin="round"/>
<path d="M1153.5 263.5L1075.5 407.5L1143.5 423.5L1153.5 263.5Z" stroke="#422D80" stroke-miterlimit="1" stroke-linejoin="round"/>
<path d="M1159.5 838.5L950.5 949.5L977.5 1016.5L1159.5 838.5Z" stroke="#422D80" stroke-miterlimit="1" stroke-linejoin="round"/>
<path d="M1197.5 63.5L1180.5 -12.5L1111.5 65.5L1197.5 63.5Z" stroke="#422D80" stroke-miterlimit="1" stroke-linejoin="round"/>
<path d="M1197.5 63.5L1111.5 65.5L1105.5 103.5L1197.5 63.5Z" stroke="#422D80" stroke-miterlimit="1" stroke-linejoin="round"/>
<path d="M1159.5 838.5L951.5 913.5L950.5 949.5L1159.5 838.5Z" stroke="#422D80" stroke-miterlimit="1" stroke-linejoin="round"/>
<path d="M1159.5 838.5L1050.5 690.5L1008.5 749.5L1159.5 838.5Z" stroke="#422D80" stroke-miterlimit="1" stroke-linejoin="round"/>
<path d="M1180.5 -12.5L1173.5 -46.5L1111.5 65.5L1180.5 -12.5Z" stroke="#422D80" stroke-miterlimit="1" stroke-linejoin="round"/>
<path d="M1173.5 -46.5L1023.5 -104.5L1111.5 65.5L1173.5 -46.5Z" stroke="#422D80" stroke-miterlimit="1" stroke-linejoin="round"/>
<path d="M1111.5 65.5L1023.5 -104.5L1026.5 59.5L1111.5 65.5Z" stroke="#422D80" stroke-miterlimit="1" stroke-linejoin="round"/>
<path d="M1143.5 423.5L1075.5 407.5L1112.5 527.5L1143.5 423.5Z" stroke="#422D80" stroke-miterlimit="1" stroke-linejoin="round"/>
<path d="M1153.5 263.5L1078.5 210.5L1075.5 407.5L1153.5 263.5Z" stroke="#422D80" stroke-miterlimit="1" stroke-linejoin="round"/>
<path d="M1159.5 838.5L1008.5 749.5L951.5 913.5L1159.5 838.5Z" stroke="#422D80" stroke-miterlimit="1" stroke-linejoin="round"/>
<path d="M1078.5 210.5L963.5 377.5L1075.5 407.5L1078.5 210.5Z" stroke="#422D80" stroke-miterlimit="1" stroke-linejoin="round"/>
<path d="M1078.5 210.5L964.5 227.5L963.5 377.5L1078.5 210.5Z" stroke="#422D80" stroke-miterlimit="1" stroke-linejoin="round"/>
<path d="M1105.5 103.5L1026.5 59.5L1078.5 210.5L1105.5 103.5Z" stroke="#422D80" stroke-miterlimit="1" stroke-linejoin="round"/>
<path d="M1112.5 527.5L1075.5 407.5L1067.5 582.5L1112.5 527.5Z" stroke="#422D80" stroke-miterlimit="1" stroke-linejoin="round"/>
<path d="M1111.5 65.5L1026.5 59.5L1105.5 103.5L1111.5 65.5Z" stroke="#422D80" stroke-miterlimit="1" stroke-linejoin="round"/>
<path d="M1075.5 407.5L963.5 377.5L1067.5 582.5L1075.5 407.5Z" stroke="#422D80" stroke-miterlimit="1" stroke-linejoin="round"/>
<path d="M951.5 913.5L947.5 765.5L913.5 861.5L951.5 913.5Z" stroke="#422D80" stroke-miterlimit="1" stroke-linejoin="round"/>
<path d="M1008.5 749.5L947.5 765.5L951.5 913.5L1008.5 749.5Z" stroke="#422D80" stroke-miterlimit="1" stroke-linejoin="round"/>
<path d="M1026.5 59.5L1023.5 -104.5H1005.5L1026.5 59.5Z" stroke="#422D80" stroke-miterlimit="1" stroke-linejoin="round"/>
<path d="M1067.5 582.5L963.5 377.5L866.5 518.5L1067.5 582.5Z" stroke="#422D80" stroke-miterlimit="1" stroke-linejoin="round"/>
<path d="M1078.5 210.5L1026.5 59.5L964.5 227.5L1078.5 210.5Z" stroke="#422D80" stroke-miterlimit="1" stroke-linejoin="round"/>
<path d="M1067.5 582.5L866.5 518.5L1050.5 690.5L1067.5 582.5Z" stroke="#422D80" stroke-miterlimit="1" stroke-linejoin="round"/>
<path d="M1005.5 1134.5L977.5 1016.5L983.5 1134.5H1005.5Z" stroke="#422D80" stroke-miterlimit="1" stroke-linejoin="round"/>
<path d="M1026.5 59.5L864.5 108.5L964.5 227.5L1026.5 59.5Z" stroke="#422D80" stroke-miterlimit="1" stroke-linejoin="round"/>
<path d="M1050.5 690.5L947.5 765.5L1008.5 749.5L1050.5 690.5Z" stroke="#422D80" stroke-miterlimit="1" stroke-linejoin="round"/>
<path d="M1050.5 690.5L866.5 518.5L947.5 765.5L1050.5 690.5Z" stroke="#422D80" stroke-miterlimit="1" stroke-linejoin="round"/>
<path d="M947.5 765.5L866.5 518.5L856.5 755.5L947.5 765.5Z" stroke="#422D80" stroke-miterlimit="1" stroke-linejoin="round"/>
<path d="M964.5 227.5L881.5 296.5L963.5 377.5L964.5 227.5Z" stroke="#422D80" stroke-miterlimit="1" stroke-linejoin="round"/>
<path d="M983.5 1134.5L977.5 1016.5L976.5 1134.5H983.5Z" stroke="#422D80" stroke-miterlimit="1" stroke-linejoin="round"/>
<path d="M1005.5 -104.5L792.5 58.5L864.5 108.5L1005.5 -104.5Z" stroke="#422D80" stroke-miterlimit="1" stroke-linejoin="round"/>
<path d="M1005.5 -104.5H787.5L792.5 58.5L1005.5 -104.5Z" stroke="#422D80" stroke-miterlimit="1" stroke-linejoin="round"/>
<path d="M1026.5 59.5L1005.5 -104.5L864.5 108.5L1026.5 59.5Z" stroke="#422D80" stroke-miterlimit="1" stroke-linejoin="round"/>
<path d="M977.5 1016.5L941.5 1134.5H976.5L977.5 1016.5Z" stroke="#422D80" stroke-miterlimit="1" stroke-linejoin="round"/>
<path d="M977.5 1016.5L884.5 1061.5L941.5 1134.5L977.5 1016.5Z" stroke="#422D80" stroke-miterlimit="1" stroke-linejoin="round"/>
<path d="M977.5 1016.5L950.5 949.5L857.5 1031.5L977.5 1016.5Z" stroke="#422D80" stroke-miterlimit="1" stroke-linejoin="round"/>
<path d="M977.5 1016.5L857.5 1031.5L884.5 1061.5L977.5 1016.5Z" stroke="#422D80" stroke-miterlimit="1" stroke-linejoin="round"/>
<path d="M964.5 227.5L868.5 266.5L881.5 296.5L964.5 227.5Z" stroke="#422D80" stroke-miterlimit="1" stroke-linejoin="round"/>
<path d="M963.5 377.5L881.5 296.5L866.5 518.5L963.5 377.5Z" stroke="#422D80" stroke-miterlimit="1" stroke-linejoin="round"/>
<path d="M964.5 227.5L864.5 108.5L868.5 266.5L964.5 227.5Z" stroke="#422D80" stroke-miterlimit="1" stroke-linejoin="round"/>
<path d="M881.5 296.5L733.5 444.5L866.5 518.5L881.5 296.5Z" stroke="#422D80" stroke-miterlimit="1" stroke-linejoin="round"/>
<path d="M947.5 765.5L856.5 755.5L913.5 861.5L947.5 765.5Z" stroke="#422D80" stroke-miterlimit="1" stroke-linejoin="round"/>
<path d="M950.5 949.5L863.5 910.5L831.5 941.5L950.5 949.5Z" stroke="#422D80" stroke-miterlimit="1" stroke-linejoin="round"/>
<path d="M950.5 949.5L831.5 941.5L857.5 1031.5L950.5 949.5Z" stroke="#422D80" stroke-miterlimit="1" stroke-linejoin="round"/>
<path d="M951.5 913.5L863.5 910.5L950.5 949.5L951.5 913.5Z" stroke="#422D80" stroke-miterlimit="1" stroke-linejoin="round"/>
<path d="M951.5 913.5L913.5 861.5L863.5 910.5L951.5 913.5Z" stroke="#422D80" stroke-miterlimit="1" stroke-linejoin="round"/>
<path d="M866.5 518.5L706.5 674.5L856.5 755.5L866.5 518.5Z" stroke="#422D80" stroke-miterlimit="1" stroke-linejoin="round"/>
<path d="M792.5 58.5L787.5 -104.5L741.5 -44.5L792.5 58.5Z" stroke="#422D80" stroke-miterlimit="1" stroke-linejoin="round"/>
<path d="M868.5 266.5L864.5 108.5L768.5 187.5L868.5 266.5Z" stroke="#422D80" stroke-miterlimit="1" stroke-linejoin="round"/>
<path d="M913.5 861.5L856.5 755.5L863.5 910.5L913.5 861.5Z" stroke="#422D80" stroke-miterlimit="1" stroke-linejoin="round"/>
<path d="M792.5 58.5L741.5 -44.5L746.5 25.5L792.5 58.5Z" stroke="#422D80" stroke-miterlimit="1" stroke-linejoin="round"/>
<path d="M856.5 755.5L706.5 674.5L761.5 771.5L856.5 755.5Z" stroke="#422D80" stroke-miterlimit="1" stroke-linejoin="round"/>
<path d="M863.5 910.5L856.5 755.5L761.5 771.5L863.5 910.5Z" stroke="#422D80" stroke-miterlimit="1" stroke-linejoin="round"/>
<path d="M866.5 518.5L672.5 636.5L706.5 674.5L866.5 518.5Z" stroke="#422D80" stroke-miterlimit="1" stroke-linejoin="round"/>
<path d="M881.5 296.5L868.5 266.5L733.5 444.5L881.5 296.5Z" stroke="#422D80" stroke-miterlimit="1" stroke-linejoin="round"/>
<path d="M884.5 1061.5L857.5 1031.5L763.5 1071.5L884.5 1061.5Z" stroke="#422D80" stroke-miterlimit="1" stroke-linejoin="round"/>
<path d="M857.5 1031.5L800.5 1025.5L763.5 1071.5L857.5 1031.5Z" stroke="#422D80" stroke-miterlimit="1" stroke-linejoin="round"/>
<path d="M831.5 941.5L761.5 771.5L690.5 863.5L831.5 941.5Z" stroke="#422D80" stroke-miterlimit="1" stroke-linejoin="round"/>
<path d="M857.5 1031.5L831.5 941.5L800.5 1025.5L857.5 1031.5Z" stroke="#422D80" stroke-miterlimit="1" stroke-linejoin="round"/>
<path d="M863.5 910.5L761.5 771.5L831.5 941.5L863.5 910.5Z" stroke="#422D80" stroke-miterlimit="1" stroke-linejoin="round"/>
<path d="M866.5 518.5L733.5 444.5L672.5 636.5L866.5 518.5Z" stroke="#422D80" stroke-miterlimit="1" stroke-linejoin="round"/>
<path d="M868.5 266.5L768.5 187.5L728.5 191.5L868.5 266.5Z" stroke="#422D80" stroke-miterlimit="1" stroke-linejoin="round"/>
<path d="M868.5 266.5L728.5 191.5L733.5 444.5L868.5 266.5Z" stroke="#422D80" stroke-miterlimit="1" stroke-linejoin="round"/>
<path d="M864.5 108.5L792.5 58.5L768.5 187.5L864.5 108.5Z" stroke="#422D80" stroke-miterlimit="1" stroke-linejoin="round"/>
<path d="M733.5 444.5L629.5 546.5L672.5 636.5L733.5 444.5Z" stroke="#422D80" stroke-miterlimit="1" stroke-linejoin="round"/>
<path d="M761.5 771.5L706.5 674.5L731.5 758.5L761.5 771.5Z" stroke="#422D80" stroke-miterlimit="1" stroke-linejoin="round"/>
<path d="M831.5 941.5L690.5 863.5L753.5 978.5L831.5 941.5Z" stroke="#422D80" stroke-miterlimit="1" stroke-linejoin="round"/>
<path d="M831.5 941.5L753.5 978.5L800.5 1025.5L831.5 941.5Z" stroke="#422D80" stroke-miterlimit="1" stroke-linejoin="round"/>
<path d="M733.5 444.5L728.5 191.5L540.5 292.5L733.5 444.5Z" stroke="#422D80" stroke-miterlimit="1" stroke-linejoin="round"/>
<path d="M753.5 978.5L690.5 863.5L680.5 923.5L753.5 978.5Z" stroke="#422D80" stroke-miterlimit="1" stroke-linejoin="round"/>
<path d="M792.5 58.5L728.5 191.5L768.5 187.5L792.5 58.5Z" stroke="#422D80" stroke-miterlimit="1" stroke-linejoin="round"/>
<path d="M792.5 58.5L746.5 25.5L728.5 191.5L792.5 58.5Z" stroke="#422D80" stroke-miterlimit="1" stroke-linejoin="round"/>
<path d="M800.5 1025.5L753.5 978.5L763.5 1071.5L800.5 1025.5Z" stroke="#422D80" stroke-miterlimit="1" stroke-linejoin="round"/>
<path d="M746.5 25.5L643.5 -6.5L728.5 191.5L746.5 25.5Z" stroke="#422D80" stroke-miterlimit="1" stroke-linejoin="round"/>
<path d="M761.5 771.5L731.5 758.5L690.5 863.5L761.5 771.5Z" stroke="#422D80" stroke-miterlimit="1" stroke-linejoin="round"/>
<path d="M763.5 1071.5L753.5 978.5L701.5 1117.5L763.5 1071.5Z" stroke="#422D80" stroke-miterlimit="1" stroke-linejoin="round"/>
<path d="M728.5 191.5L643.5 -6.5L540.5 118.5L728.5 191.5Z" stroke="#422D80" stroke-miterlimit="1" stroke-linejoin="round"/>
<path d="M753.5 978.5L680.5 923.5L701.5 1117.5L753.5 978.5Z" stroke="#422D80" stroke-miterlimit="1" stroke-linejoin="round"/>
<path d="M746.5 25.5L741.5 -44.5L643.5 -6.5L746.5 25.5Z" stroke="#422D80" stroke-miterlimit="1" stroke-linejoin="round"/>
<path d="M733.5 444.5L540.5 292.5L592.5 498.5L733.5 444.5Z" stroke="#422D80" stroke-miterlimit="1" stroke-linejoin="round"/>
<path d="M701.5 1117.5L680.5 923.5L543.5 944.5L701.5 1117.5Z" stroke="#422D80" stroke-miterlimit="1" stroke-linejoin="round"/>
<path d="M731.5 758.5L618.5 808.5L690.5 863.5L731.5 758.5Z" stroke="#422D80" stroke-miterlimit="1" stroke-linejoin="round"/>
<path d="M733.5 444.5L592.5 498.5L629.5 546.5L733.5 444.5Z" stroke="#422D80" stroke-miterlimit="1" stroke-linejoin="round"/>
<path d="M731.5 758.5L618.5 776.5V808.5L731.5 758.5Z" stroke="#422D80" stroke-miterlimit="1" stroke-linejoin="round"/>
<path d="M731.5 758.5L706.5 674.5L618.5 776.5L731.5 758.5Z" stroke="#422D80" stroke-miterlimit="1" stroke-linejoin="round"/>
<path d="M728.5 191.5L540.5 118.5V292.5L728.5 191.5Z" stroke="#422D80" stroke-miterlimit="1" stroke-linejoin="round"/>
<path d="M592.5 498.5L540.5 292.5L517.5 455.5L592.5 498.5Z" stroke="#422D80" stroke-miterlimit="1" stroke-linejoin="round"/>
<path d="M690.5 863.5L618.5 808.5L672.5 868.5L690.5 863.5Z" stroke="#422D80" stroke-miterlimit="1" stroke-linejoin="round"/>
<path d="M690.5 863.5L672.5 868.5L680.5 923.5L690.5 863.5Z" stroke="#422D80" stroke-miterlimit="1" stroke-linejoin="round"/>
<path d="M706.5 674.5L672.5 636.5L618.5 776.5L706.5 674.5Z" stroke="#422D80" stroke-miterlimit="1" stroke-linejoin="round"/>
<path d="M701.5 1117.5L543.5 944.5L385.5 1041.5L701.5 1117.5Z" stroke="#422D80" stroke-miterlimit="1" stroke-linejoin="round"/>
<path d="M629.5 546.5L592.5 498.5L600.5 523.5L629.5 546.5Z" stroke="#422D80" stroke-miterlimit="1" stroke-linejoin="round"/>
<path d="M672.5 868.5L618.5 808.5L608.5 831.5L672.5 868.5Z" stroke="#422D80" stroke-miterlimit="1" stroke-linejoin="round"/>
<path d="M680.5 923.5L672.5 868.5L586.5 861.5L680.5 923.5Z" stroke="#422D80" stroke-miterlimit="1" stroke-linejoin="round"/>
<path d="M680.5 923.5L586.5 861.5L543.5 944.5L680.5 923.5Z" stroke="#422D80" stroke-miterlimit="1" stroke-linejoin="round"/>
<path d="M672.5 636.5L629.5 546.5L576.5 537.5L672.5 636.5Z" stroke="#422D80" stroke-miterlimit="1" stroke-linejoin="round"/>
<path d="M672.5 636.5L576.5 537.5L618.5 776.5L672.5 636.5Z" stroke="#422D80" stroke-miterlimit="1" stroke-linejoin="round"/>
<path d="M672.5 868.5L608.5 831.5L586.5 861.5L672.5 868.5Z" stroke="#422D80" stroke-miterlimit="1" stroke-linejoin="round"/>
<path d="M576.5 537.5L391.5 707.5L484.5 803.5L576.5 537.5Z" stroke="#422D80" stroke-miterlimit="1" stroke-linejoin="round"/>
<path d="M618.5 776.5L576.5 537.5L484.5 803.5L618.5 776.5Z" stroke="#422D80" stroke-miterlimit="1" stroke-linejoin="round"/>
<path d="M643.5 -6.5L494.5 45.5L540.5 118.5L643.5 -6.5Z" stroke="#422D80" stroke-miterlimit="1" stroke-linejoin="round"/>
<path d="M643.5 -6.5L488.5 -28.5L494.5 45.5L643.5 -6.5Z" stroke="#422D80" stroke-miterlimit="1" stroke-linejoin="round"/>
<path d="M576.5 537.5L506.5 520.5L391.5 707.5L576.5 537.5Z" stroke="#422D80" stroke-miterlimit="1" stroke-linejoin="round"/>
<path d="M629.5 546.5L600.5 523.5L576.5 537.5L629.5 546.5Z" stroke="#422D80" stroke-miterlimit="1" stroke-linejoin="round"/>
<path d="M618.5 776.5L484.5 803.5L588.5 812.5L618.5 776.5Z" stroke="#422D80" stroke-miterlimit="1" stroke-linejoin="round"/>
<path d="M618.5 808.5V776.5L588.5 812.5L618.5 808.5Z" stroke="#422D80" stroke-miterlimit="1" stroke-linejoin="round"/>
<path d="M618.5 808.5L588.5 812.5L608.5 831.5L618.5 808.5Z" stroke="#422D80" stroke-miterlimit="1" stroke-linejoin="round"/>
<path d="M608.5 831.5L588.5 812.5L586.5 861.5L608.5 831.5Z" stroke="#422D80" stroke-miterlimit="1" stroke-linejoin="round"/>
<path d="M588.5 812.5L484.5 803.5L513.5 827.5L588.5 812.5Z" stroke="#422D80" stroke-miterlimit="1" stroke-linejoin="round"/>
<path d="M592.5 498.5L517.5 455.5L519.5 490.5L592.5 498.5Z" stroke="#422D80" stroke-miterlimit="1" stroke-linejoin="round"/>
<path d="M600.5 523.5L592.5 498.5L571.5 525.5L600.5 523.5Z" stroke="#422D80" stroke-miterlimit="1" stroke-linejoin="round"/>
<path d="M600.5 523.5L571.5 525.5L576.5 537.5L600.5 523.5Z" stroke="#422D80" stroke-miterlimit="1" stroke-linejoin="round"/>
<path d="M588.5 812.5L513.5 827.5L586.5 861.5L588.5 812.5Z" stroke="#422D80" stroke-miterlimit="1" stroke-linejoin="round"/>
<path d="M592.5 498.5L519.5 490.5L571.5 525.5L592.5 498.5Z" stroke="#422D80" stroke-miterlimit="1" stroke-linejoin="round"/>
<path d="M586.5 861.5L513.5 827.5L543.5 944.5L586.5 861.5Z" stroke="#422D80" stroke-miterlimit="1" stroke-linejoin="round"/>
<path d="M540.5 292.5V118.5L371.5 263.5L540.5 292.5Z" stroke="#422D80" stroke-miterlimit="1" stroke-linejoin="round"/>
<path d="M576.5 537.5L571.5 525.5L506.5 520.5L576.5 537.5Z" stroke="#422D80" stroke-miterlimit="1" stroke-linejoin="round"/>
<path d="M571.5 525.5L519.5 490.5L506.5 520.5L571.5 525.5Z" stroke="#422D80" stroke-miterlimit="1" stroke-linejoin="round"/>
<path d="M540.5 118.5L320.5 90.5L371.5 263.5L540.5 118.5Z" stroke="#422D80" stroke-miterlimit="1" stroke-linejoin="round"/>
<path d="M540.5 292.5L371.5 263.5L517.5 455.5L540.5 292.5Z" stroke="#422D80" stroke-miterlimit="1" stroke-linejoin="round"/>
<path d="M543.5 944.5L513.5 827.5L429.5 856.5L543.5 944.5Z" stroke="#422D80" stroke-miterlimit="1" stroke-linejoin="round"/>
<path d="M543.5 944.5L429.5 856.5L385.5 1041.5L543.5 944.5Z" stroke="#422D80" stroke-miterlimit="1" stroke-linejoin="round"/>
<path d="M540.5 118.5L494.5 45.5L320.5 90.5L540.5 118.5Z" stroke="#422D80" stroke-miterlimit="1" stroke-linejoin="round"/>
<path d="M484.5 803.5L391.5 707.5L456.5 809.5L484.5 803.5Z" stroke="#422D80" stroke-miterlimit="1" stroke-linejoin="round"/>
<path d="M494.5 45.5L488.5 -28.5L462.5 -20.5L494.5 45.5Z" stroke="#422D80" stroke-miterlimit="1" stroke-linejoin="round"/>
<path d="M506.5 520.5L264.5 548.5L391.5 707.5L506.5 520.5Z" stroke="#422D80" stroke-miterlimit="1" stroke-linejoin="round"/>
<path d="M513.5 827.5L456.5 809.5L429.5 856.5L513.5 827.5Z" stroke="#422D80" stroke-miterlimit="1" stroke-linejoin="round"/>
<path d="M517.5 455.5L371.5 263.5L258.5 424.5L517.5 455.5Z" stroke="#422D80" stroke-miterlimit="1" stroke-linejoin="round"/>
<path d="M519.5 490.5L517.5 455.5L506.5 520.5L519.5 490.5Z" stroke="#422D80" stroke-miterlimit="1" stroke-linejoin="round"/>
<path d="M517.5 455.5L258.5 424.5L506.5 520.5L517.5 455.5Z" stroke="#422D80" stroke-miterlimit="1" stroke-linejoin="round"/>
<path d="M513.5 827.5L484.5 803.5L456.5 809.5L513.5 827.5Z" stroke="#422D80" stroke-miterlimit="1" stroke-linejoin="round"/>
<path d="M391.5 707.5L264.5 548.5L277.5 646.5L391.5 707.5Z" stroke="#422D80" stroke-miterlimit="1" stroke-linejoin="round"/>
<path d="M456.5 809.5L391.5 707.5L380.5 755.5L456.5 809.5Z" stroke="#422D80" stroke-miterlimit="1" stroke-linejoin="round"/>
<path d="M506.5 520.5L258.5 424.5L264.5 548.5L506.5 520.5Z" stroke="#422D80" stroke-miterlimit="1" stroke-linejoin="round"/>
<path d="M429.5 856.5L309.5 921.5L385.5 1041.5L429.5 856.5Z" stroke="#422D80" stroke-miterlimit="1" stroke-linejoin="round"/>
<path d="M494.5 45.5L462.5 -20.5L373.5 -2.5L494.5 45.5Z" stroke="#422D80" stroke-miterlimit="1" stroke-linejoin="round"/>
<path d="M494.5 45.5L373.5 -2.5L320.5 90.5L494.5 45.5Z" stroke="#422D80" stroke-miterlimit="1" stroke-linejoin="round"/>
<path d="M391.5 707.5L277.5 646.5L347.5 707.5H391.5Z" stroke="#422D80" stroke-miterlimit="1" stroke-linejoin="round"/>
<path d="M456.5 809.5L380.5 755.5L429.5 856.5L456.5 809.5Z" stroke="#422D80" stroke-miterlimit="1" stroke-linejoin="round"/>
<path d="M371.5 263.5L320.5 90.5L285.5 251.5L371.5 263.5Z" stroke="#422D80" stroke-miterlimit="1" stroke-linejoin="round"/>
<path d="M429.5 856.5L322.5 775.5L294.5 806.5L429.5 856.5Z" stroke="#422D80" stroke-miterlimit="1" stroke-linejoin="round"/>
<path d="M429.5 856.5L294.5 806.5L309.5 921.5L429.5 856.5Z" stroke="#422D80" stroke-miterlimit="1" stroke-linejoin="round"/>
<path d="M429.5 856.5L380.5 755.5L322.5 775.5L429.5 856.5Z" stroke="#422D80" stroke-miterlimit="1" stroke-linejoin="round"/>
<path d="M371.5 263.5L285.5 251.5L258.5 424.5L371.5 263.5Z" stroke="#422D80" stroke-miterlimit="1" stroke-linejoin="round"/>
<path d="M385.5 1041.5L309.5 921.5L268.5 985.5L385.5 1041.5Z" stroke="#422D80" stroke-miterlimit="1" stroke-linejoin="round"/>
<path d="M385.5 1041.5L268.5 985.5L270.5 1020.5L385.5 1041.5Z" stroke="#422D80" stroke-miterlimit="1" stroke-linejoin="round"/>
<path d="M391.5 707.5H347.5L380.5 755.5L391.5 707.5Z" stroke="#422D80" stroke-miterlimit="1" stroke-linejoin="round"/>
<path d="M320.5 90.5L247.5 230.5L285.5 251.5L320.5 90.5Z" stroke="#422D80" stroke-miterlimit="1" stroke-linejoin="round"/>
<path d="M385.5 1041.5L270.5 1020.5L360.5 1112.5L385.5 1041.5Z" stroke="#422D80" stroke-miterlimit="1" stroke-linejoin="round"/>
<path d="M380.5 -30.5L205.5 -104.5L244.5 23.5L380.5 -30.5Z" stroke="#422D80" stroke-miterlimit="1" stroke-linejoin="round"/>
<path d="M380.5 755.5L347.5 707.5L322.5 775.5L380.5 755.5Z" stroke="#422D80" stroke-miterlimit="1" stroke-linejoin="round"/>
<path d="M380.5 -30.5L244.5 23.5L373.5 -2.5L380.5 -30.5Z" stroke="#422D80" stroke-miterlimit="1" stroke-linejoin="round"/>
<path d="M360.5 1112.5L270.5 1020.5L250.5 1103.5L360.5 1112.5Z" stroke="#422D80" stroke-miterlimit="1" stroke-linejoin="round"/>
<path d="M373.5 -2.5L244.5 23.5L320.5 90.5L373.5 -2.5Z" stroke="#422D80" stroke-miterlimit="1" stroke-linejoin="round"/>
<path d="M309.5 921.5L294.5 806.5L251.5 886.5L309.5 921.5Z" stroke="#422D80" stroke-miterlimit="1" stroke-linejoin="round"/>
<path d="M264.5 548.5L258.5 424.5L221.5 510.5L264.5 548.5Z" stroke="#422D80" stroke-miterlimit="1" stroke-linejoin="round"/>
<path d="M277.5 646.5L264.5 548.5L240.5 603.5L277.5 646.5Z" stroke="#422D80" stroke-miterlimit="1" stroke-linejoin="round"/>
<path d="M285.5 251.5L189.5 286.5L258.5 424.5L285.5 251.5Z" stroke="#422D80" stroke-miterlimit="1" stroke-linejoin="round"/>
<path d="M347.5 707.5L277.5 646.5L322.5 775.5L347.5 707.5Z" stroke="#422D80" stroke-miterlimit="1" stroke-linejoin="round"/>
<path d="M320.5 90.5L129.5 174.5L247.5 230.5L320.5 90.5Z" stroke="#422D80" stroke-miterlimit="1" stroke-linejoin="round"/>
<path d="M320.5 90.5L244.5 23.5L129.5 174.5L320.5 90.5Z" stroke="#422D80" stroke-miterlimit="1" stroke-linejoin="round"/>
<path d="M322.5 775.5L195.5 763.5L294.5 806.5L322.5 775.5Z" stroke="#422D80" stroke-miterlimit="1" stroke-linejoin="round"/>
<path d="M322.5 775.5L277.5 646.5L195.5 763.5L322.5 775.5Z" stroke="#422D80" stroke-miterlimit="1" stroke-linejoin="round"/>
<path d="M258.5 424.5L189.5 286.5L166.5 381.5L258.5 424.5Z" stroke="#422D80" stroke-miterlimit="1" stroke-linejoin="round"/>
<path d="M309.5 921.5L251.5 886.5L268.5 985.5L309.5 921.5Z" stroke="#422D80" stroke-miterlimit="1" stroke-linejoin="round"/>
<path d="M189.5 286.5L156.5 343.5L166.5 381.5L189.5 286.5Z" stroke="#422D80" stroke-miterlimit="1" stroke-linejoin="round"/>
<path d="M285.5 251.5L247.5 230.5L189.5 286.5L285.5 251.5Z" stroke="#422D80" stroke-miterlimit="1" stroke-linejoin="round"/>
<path d="M294.5 806.5L195.5 763.5L251.5 886.5L294.5 806.5Z" stroke="#422D80" stroke-miterlimit="1" stroke-linejoin="round"/>
<path d="M268.5 985.5L251.5 886.5L145.5 1005.5L268.5 985.5Z" stroke="#422D80" stroke-miterlimit="1" stroke-linejoin="round"/>
<path d="M277.5 646.5L240.5 603.5L195.5 763.5L277.5 646.5Z" stroke="#422D80" stroke-miterlimit="1" stroke-linejoin="round"/>
<path d="M270.5 1020.5L268.5 985.5L145.5 1005.5L270.5 1020.5Z" stroke="#422D80" stroke-miterlimit="1" stroke-linejoin="round"/>
<path d="M270.5 1020.5L145.5 1005.5L250.5 1103.5L270.5 1020.5Z" stroke="#422D80" stroke-miterlimit="1" stroke-linejoin="round"/>
<path d="M264.5 548.5L221.5 510.5L240.5 603.5L264.5 548.5Z" stroke="#422D80" stroke-miterlimit="1" stroke-linejoin="round"/>
<path d="M244.5 23.5L205.5 -104.5L85.5 -5.5L244.5 23.5Z" stroke="#422D80" stroke-miterlimit="1" stroke-linejoin="round"/>
<path d="M250.5 1103.5L145.5 1005.5L152.5 1121.5L250.5 1103.5Z" stroke="#422D80" stroke-miterlimit="1" stroke-linejoin="round"/>
<path d="M258.5 424.5L149.5 488.5L221.5 510.5L258.5 424.5Z" stroke="#422D80" stroke-miterlimit="1" stroke-linejoin="round"/>
<path d="M258.5 424.5L166.5 381.5L149.5 488.5L258.5 424.5Z" stroke="#422D80" stroke-miterlimit="1" stroke-linejoin="round"/>
<path d="M240.5 603.5L33.5 718.5L195.5 763.5L240.5 603.5Z" stroke="#422D80" stroke-miterlimit="1" stroke-linejoin="round"/>
<path d="M244.5 23.5L85.5 -5.5L129.5 174.5L244.5 23.5Z" stroke="#422D80" stroke-miterlimit="1" stroke-linejoin="round"/>
<path d="M251.5 886.5L195.5 763.5L62.5 884.5L251.5 886.5Z" stroke="#422D80" stroke-miterlimit="1" stroke-linejoin="round"/>
<path d="M251.5 886.5L62.5 884.5L145.5 1005.5L251.5 886.5Z" stroke="#422D80" stroke-miterlimit="1" stroke-linejoin="round"/>
<path d="M247.5 230.5L129.5 174.5L189.5 286.5L247.5 230.5Z" stroke="#422D80" stroke-miterlimit="1" stroke-linejoin="round"/>
<path d="M240.5 603.5L221.5 510.5L149.5 488.5L240.5 603.5Z" stroke="#422D80" stroke-miterlimit="1" stroke-linejoin="round"/>
<path d="M240.5 603.5L149.5 488.5L33.5 718.5L240.5 603.5Z" stroke="#422D80" stroke-miterlimit="1" stroke-linejoin="round"/>
<path d="M149.5 488.5L82.5 480.5L33.5 718.5L149.5 488.5Z" stroke="#422D80" stroke-miterlimit="1" stroke-linejoin="round"/>
<path d="M129.5 174.5L85.5 -5.5L39.5 132.5L129.5 174.5Z" stroke="#422D80" stroke-miterlimit="1" stroke-linejoin="round"/>
<path d="M85.5 -5.5L23.5 82.5L39.5 132.5L85.5 -5.5Z" stroke="#422D80" stroke-miterlimit="1" stroke-linejoin="round"/>
<path d="M195.5 763.5L33.5 718.5L62.5 884.5L195.5 763.5Z" stroke="#422D80" stroke-miterlimit="1" stroke-linejoin="round"/>
<path d="M189.5 286.5L14.5 293.5L156.5 343.5L189.5 286.5Z" stroke="#422D80" stroke-miterlimit="1" stroke-linejoin="round"/>
<path d="M189.5 286.5L129.5 174.5L14.5 293.5L189.5 286.5Z" stroke="#422D80" stroke-miterlimit="1" stroke-linejoin="round"/>
<path d="M145.5 1005.5L62.5 884.5L24.5 981.5L145.5 1005.5Z" stroke="#422D80" stroke-miterlimit="1" stroke-linejoin="round"/>
<path d="M152.5 1121.5L145.5 1005.5L24.5 981.5L152.5 1121.5Z" stroke="#422D80" stroke-miterlimit="1" stroke-linejoin="round"/>
<path d="M166.5 381.5L82.5 480.5L149.5 488.5L166.5 381.5Z" stroke="#422D80" stroke-miterlimit="1" stroke-linejoin="round"/>
<path d="M166.5 381.5L156.5 343.5L7.5 366.5L166.5 381.5Z" stroke="#422D80" stroke-miterlimit="1" stroke-linejoin="round"/>
<path d="M166.5 381.5L7.5 366.5L82.5 480.5L166.5 381.5Z" stroke="#422D80" stroke-miterlimit="1" stroke-linejoin="round"/>
<path d="M82.5 480.5L-57.5 665.5L33.5 718.5L82.5 480.5Z" stroke="#422D80" stroke-miterlimit="1" stroke-linejoin="round"/>
<path d="M156.5 343.5L14.5 293.5L7.5 366.5L156.5 343.5Z" stroke="#422D80" stroke-miterlimit="1" stroke-linejoin="round"/>
<path d="M152.5 1121.5L24.5 981.5L-170.5 1118.5L152.5 1121.5Z" stroke="#422D80" stroke-miterlimit="1" stroke-linejoin="round"/>
<path d="M129.5 174.5L-16.5 241.5L14.5 293.5L129.5 174.5Z" stroke="#422D80" stroke-miterlimit="1" stroke-linejoin="round"/>
<path d="M129.5 174.5L39.5 132.5L-16.5 241.5L129.5 174.5Z" stroke="#422D80" stroke-miterlimit="1" stroke-linejoin="round"/>
<path d="M14.5 293.5L0.5 321.5L7.5 366.5L14.5 293.5Z" stroke="#422D80" stroke-miterlimit="1" stroke-linejoin="round"/>
<path d="M33.5 718.5L2.5 715.5L-63.5 782.5L33.5 718.5Z" stroke="#422D80" stroke-miterlimit="1" stroke-linejoin="round"/>
<path d="M33.5 718.5L-57.5 665.5L2.5 715.5L33.5 718.5Z" stroke="#422D80" stroke-miterlimit="1" stroke-linejoin="round"/>
<path d="M62.5 884.5L33.5 718.5L-63.5 782.5L62.5 884.5Z" stroke="#422D80" stroke-miterlimit="1" stroke-linejoin="round"/>
<path d="M62.5 884.5L-63.5 782.5L-18.5 889.5L62.5 884.5Z" stroke="#422D80" stroke-miterlimit="1" stroke-linejoin="round"/>
<path d="M82.5 480.5L-199.5 515.5L-57.5 665.5L82.5 480.5Z" stroke="#422D80" stroke-miterlimit="1" stroke-linejoin="round"/>
<path d="M85.5 -5.5L36.5 -74.5L23.5 82.5L85.5 -5.5Z" stroke="#422D80" stroke-miterlimit="1" stroke-linejoin="round"/>
<path d="M82.5 480.5L7.5 366.5L-199.5 515.5L82.5 480.5Z" stroke="#422D80" stroke-miterlimit="1" stroke-linejoin="round"/>
<path d="M36.5 -74.5L-100.5 -32.5L23.5 82.5L36.5 -74.5Z" stroke="#422D80" stroke-miterlimit="1" stroke-linejoin="round"/>
<path d="M62.5 884.5L-18.5 889.5L24.5 981.5L62.5 884.5Z" stroke="#422D80" stroke-miterlimit="1" stroke-linejoin="round"/>
<path d="M24.5 981.5L-182.5 1021.5L-170.5 1118.5L24.5 981.5Z" stroke="#422D80" stroke-miterlimit="1" stroke-linejoin="round"/>
<path d="M39.5 132.5L23.5 82.5L-16.5 241.5L39.5 132.5Z" stroke="#422D80" stroke-miterlimit="1" stroke-linejoin="round"/>
<path d="M23.5 82.5L-199.5 132.5L-16.5 241.5L23.5 82.5Z" stroke="#422D80" stroke-miterlimit="1" stroke-linejoin="round"/>
<path d="M23.5 82.5L-199.5 78.5V132.5L23.5 82.5Z" stroke="#422D80" stroke-miterlimit="1" stroke-linejoin="round"/>
<path d="M24.5 981.5L-18.5 889.5L-182.5 1021.5L24.5 981.5Z" stroke="#422D80" stroke-miterlimit="1" stroke-linejoin="round"/>
<path d="M23.5 82.5L-100.5 -32.5L-199.5 78.5L23.5 82.5Z" stroke="#422D80" stroke-miterlimit="1" stroke-linejoin="round"/>
<path d="M14.5 293.5L-16.5 241.5L0.5 321.5L14.5 293.5Z" stroke="#422D80" stroke-miterlimit="1" stroke-linejoin="round"/>
<path d="M2.5 715.5L-88.5 729.5L-63.5 782.5L2.5 715.5Z" stroke="#422D80" stroke-miterlimit="1" stroke-linejoin="round"/>
<path d="M7.5 366.5L0.5 321.5L-199.5 515.5L7.5 366.5Z" stroke="#422D80" stroke-miterlimit="1" stroke-linejoin="round"/>
<path d="M2.5 715.5L-57.5 665.5L-84.5 687.5L2.5 715.5Z" stroke="#422D80" stroke-miterlimit="1" stroke-linejoin="round"/>
<path d="M2.5 715.5L-84.5 687.5L-88.5 729.5L2.5 715.5Z" stroke="#422D80" stroke-miterlimit="1" stroke-linejoin="round"/>
<path d="M0.5 321.5L-16.5 241.5L-199.5 132.5L0.5 321.5Z" stroke="#422D80" stroke-miterlimit="1" stroke-linejoin="round"/>
<path d="M0.5 321.5L-199.5 132.5V515.5L0.5 321.5Z" stroke="#422D80" stroke-miterlimit="1" stroke-linejoin="round"/>
</g>
<defs>
<clipPath id="clip0">
<rect width="2009" height="1033" fill="white"/>
</clipPath>
</defs>
</svg>
