<svg width="204" height="60" viewBox="0 0 204 60" fill="none" xmlns="http://www.w3.org/2000/svg">
  <path fill-rule="evenodd" clip-rule="evenodd" d="M72 41.543L80.118 18h4.833l8.027 23.543h-4.88l-1.55-5.029H78.43l-1.55 5.029H72zm7.616-8.823h5.791l-2.736-9.28h-.182l-2.873 9.28zm13.59 3.2h4.378c.182 1.783 1.276 2.651 3.237 2.651.821 0 1.551-.137 2.144-.457.593-.32.866-.823.866-1.463 0-.64-.228-1.097-.729-1.371-.502-.274-1.14-.503-1.916-.686l-3.055-.64c-2.964-.64-4.47-2.331-4.47-5.074 0-.777.138-1.463.457-2.149.319-.64.775-1.234 1.368-1.691.593-.503 1.322-.869 2.189-1.143.866-.274 1.824-.411 2.918-.411 2.007 0 3.694.503 4.971 1.463 1.277.96 2.007 2.422 2.098 4.388h-4.378c-.046-.823-.319-1.463-.821-1.874-.501-.412-1.14-.594-1.915-.594-.73 0-1.368.182-1.824.502-.456.32-.73.823-.73 1.418 0 .594.183 1.051.502 1.325.365.275.82.503 1.368.64l3.557.732c.638.137 1.277.32 1.87.594.593.274 1.094.594 1.505 1.006.41.411.775.868 1.003 1.417.228.548.365 1.234.365 1.966 0 .777-.183 1.462-.502 2.148-.319.686-.821 1.234-1.414 1.737-.638.503-1.413.869-2.325 1.189a10.88 10.88 0 01-3.147.457c-2.371 0-4.196-.503-5.518-1.554-1.277-1.097-1.961-2.56-2.052-4.526zM110.398 18v23.543h4.378V18h-4.378zm10.443 5.897l-5.974 7.954 6.841 9.692h4.834l-6.932-9.692 6.385-7.954h-5.154zm6.248 17.646L135.161 18h4.834l8.072 23.543h-4.88l-1.55-5.029h-8.118l-1.55 5.029h-4.88zm7.616-8.823h5.792l-2.737-9.28h-.136l-2.919 9.28zm14.867-8.823v17.646h4.378V31.349c0-1.326.319-2.378 1.003-3.155.684-.777 1.642-1.188 2.827-1.188 1.049 0 1.779.274 2.235.868.456.595.684 1.372.684 2.423v11.246h4.378V29.977c0-2.011-.456-3.611-1.414-4.754-.957-1.143-2.417-1.737-4.423-1.737-1.277 0-2.326.274-3.192.777-.867.503-1.551 1.234-2.098 2.194v-2.56h-4.378zm18.606 17.646V23.897h4.378v2.56c.547-.96 1.231-1.691 2.098-2.194.866-.503 1.915-.777 3.192-.777 2.007 0 3.466.594 4.424 1.737.957 1.143 1.413 2.743 1.413 4.754v11.566h-4.378V30.297c0-1.051-.228-1.828-.684-2.423-.456-.594-1.185-.868-2.234-.868-1.186 0-2.144.411-2.828 1.188-.684.777-1.003 1.829-1.003 3.155v10.194h-4.378zm19.108-8.732c-1.003 1.052-1.505 2.286-1.505 3.703 0 .823.137 1.555.411 2.195.273.64.684 1.188 1.185 1.691.502.503 1.095.869 1.779 1.143a5.89 5.89 0 002.234.411c1.368 0 2.463-.32 3.329-.868.867-.549 1.551-1.326 2.053-2.286h.136l.046 2.743h6.932V38.16h-3.01v-8.64c0-2.011-.639-3.52-1.87-4.526-1.231-1.051-2.918-1.554-5.062-1.554-1.049 0-2.052.091-2.964.366-.912.228-1.733.594-2.371 1.097a5.574 5.574 0 00-1.597 1.828c-.41.732-.638 1.6-.638 2.56h4.378c0-.777.274-1.417.821-1.828.593-.412 1.322-.64 2.189-.64.866 0 1.55.183 2.052.594.502.412.73 1.097.73 2.012v1.142l-4.926.412c-1.869.183-3.329.777-4.332 1.828zm3.74 5.395c-.502-.275-.73-.64-.73-1.189V35.51c.045-.686.365-1.098 1.003-1.143l5.245-.457v.685c0 1.097-.32 2.057-.958 2.835-.639.777-1.551 1.188-2.645 1.188-.775 0-1.414-.137-1.915-.411z" fill="#fff"/>
  <path d="M63.648 47.123l-10.79-32.49h-.046a23.017 23.017 0 00-7.65-10.12A22.577 22.577 0 0031.57 0C26.63 0 21.92 1.559 17.98 4.513a22.936 22.936 0 00-7.662 10.144h-.07L.32 47.274l-.035.105a10.186 10.186 0 001.919 8.724A10.173 10.173 0 0010.237 60h43.528c3.21 0 6.162-1.454 8.115-4.002a10.17 10.17 0 001.768-8.875zm-4.72 6.607a6.458 6.458 0 01-5.163 2.548h-8.847c2.895-3.78 4.65-8.841 4.65-14.401l-.779-9.818a3.35 3.35 0 01.803-2.443l.86-1-.57-1.675C47.871 30.14 44.243 34.292 39 34.292c0 0 3.104-3.408 4.825-9.422-7.464 4.106-16.847 7.62-28.485 9.376l-5.603 1.023 5.592 1.024-.884 5.595c0 5.56 1.767 10.62 4.65 14.401h-8.858c-2 0-3.86-.907-5.104-2.477a6.476 6.476 0 01-1.233-5.49l9.104-29.908h.011l.407-1.314A19.073 19.073 0 0120.2 7.526a18.855 18.855 0 0111.37-3.769c4.128 0 8.058 1.303 11.36 3.77 3.185 2.384 5.603 5.78 6.778 9.561l.407 1.314h.058l9.894 29.768c.5 1.92.081 3.955-1.14 5.56z" fill="#fff"/>
</svg>
