<svg fill="none" height="360" viewBox="0 0 1200 360" width="1200" xmlns="http://www.w3.org/2000/svg"><path clip-rule="evenodd" d="m408.001 249.257 48.747-141.257h29.029l48.199 141.257h-29.303l-9.311-30.171h-48.747l-9.311 30.171zm45.734-52.937h34.78l-16.431-55.68h-1.096zm81.61 19.2h26.291c1.095 10.697 7.668 15.908 19.444 15.908 4.929 0 9.311-.823 12.871-2.742 3.56-1.92 5.203-4.938 5.203-8.778s-1.369-6.582-4.381-8.228c-3.013-1.646-6.847-3.017-11.502-4.114l-18.349-3.84c-17.801-3.84-26.838-13.989-26.838-30.446 0-4.663.821-8.777 2.738-12.892 1.917-3.84 4.656-7.405 8.216-10.148 3.56-3.017 7.942-5.212 13.145-6.857 5.204-1.646 10.955-2.469 17.527-2.469 12.05 0 22.183 3.017 29.851 8.777s12.05 14.537 12.597 26.332h-26.29c-.274-4.937-1.917-8.777-4.929-11.246-3.013-2.469-6.847-3.566-11.502-3.566-4.382 0-8.216 1.097-10.955 3.017-2.738 1.92-4.382 4.938-4.382 8.503 0 3.566 1.096 6.309 3.013 7.955 2.191 1.645 4.929 3.017 8.216 3.84l21.361 4.388c3.834.823 7.668 1.92 11.228 3.566s6.572 3.566 9.037 6.034c2.465 2.469 4.656 5.212 6.025 8.503s2.191 7.406 2.191 11.794c0 4.663-1.096 8.777-3.013 12.892-1.917 4.114-4.929 7.405-8.489 10.422-3.834 3.018-8.49 5.212-13.967 7.132-5.477 1.646-11.776 2.743-18.896 2.743-14.241 0-25.195-3.017-33.137-9.326-7.668-6.583-11.776-15.36-12.324-27.154zm103.245-107.52v141.257h26.29v-141.257zm62.713 35.383-35.875 47.725 41.079 58.149h29.029l-41.627-58.149 38.341-47.725zm37.519 105.874 48.473-141.257h29.029l48.473 141.257h-29.302l-9.312-30.171h-48.747l-9.311 30.171zm45.735-52.937h34.78l-16.432-55.68h-.821zm89.278-52.937v105.874h26.29v-61.166c0-7.954 1.917-14.263 6.025-18.925 4.108-4.663 9.859-7.132 16.979-7.132 6.299 0 10.681 1.646 13.419 5.212 2.739 3.565 4.108 8.228 4.108 14.537v67.474h26.291v-69.394c0-12.069-2.739-21.669-8.49-28.526s-14.514-10.423-26.564-10.423c-7.668 0-13.967 1.646-19.17 4.663-5.204 3.017-9.312 7.406-12.598 13.166v-15.36zm111.734 105.874v-105.874h26.291v15.36c3.29-5.76 7.39-10.149 12.6-13.166 5.2-3.017 11.5-4.663 19.17-4.663 12.05 0 20.81 3.566 26.56 10.423s8.49 16.457 8.49 28.526v69.394h-26.29v-67.474c0-6.309-1.37-10.972-4.11-14.537-2.74-3.566-7.12-5.212-13.42-5.212-7.12 0-12.87 2.469-16.98 7.132-4.1 4.662-6.02 10.971-6.02 18.925v61.166zm114.751-52.389c-6.03 6.309-9.04 13.715-9.04 22.218 0 4.937.82 9.325 2.46 13.165 1.65 3.84 4.11 7.132 7.12 10.149 3.02 3.017 6.58 5.211 10.68 6.857 4.11 1.646 8.49 2.469 13.42 2.469 8.22 0 14.79-1.92 19.99-5.212 5.21-3.291 9.32-7.954 12.33-13.714h.82l.27 16.457h41.63v-20.297h-18.07v-51.84c0-12.069-3.84-21.12-11.23-27.154-7.4-6.309-17.53-9.326-30.4-9.326-6.3 0-12.32.548-17.8 2.194-5.48 1.372-10.41 3.566-14.24 6.583-4.11 3.017-7.12 6.583-9.59 10.971-2.46 4.389-3.83 9.6-3.83 15.36h26.29c0-4.662 1.64-8.502 4.93-10.971 3.56-2.469 7.94-3.84 13.14-3.84 5.21 0 9.31 1.097 12.33 3.566 3.01 2.468 4.38 6.583 4.38 12.068v6.857l-29.58 2.469c-11.23 1.097-19.99 4.663-26.01 10.971zm22.45 32.366c-3.01-1.646-4.38-3.84-4.38-7.131v-9.052c.27-4.114 2.19-6.583 6.03-6.857l31.49-2.743v4.115c0 6.582-1.92 12.342-5.75 17.005-3.84 4.663-9.31 7.132-15.89 7.132-4.65 0-8.49-.823-11.5-2.469z" fill="#fff" fill-rule="evenodd"/><path d="m347.121 278.507-57.88-174.126h-.139c-14.887-47.4453-59.201-81.881-111.516-81.881-52.453 0-96.7673 34.5053-111.5851 82.089h-.0695l-53.3578 175.101c-7.09587 29.427 15.2351 57.81 45.5663 57.81h58.5751c-21.4264-21.844-35.1311-54.471-35.1311-91.063l4.9393-31.306-31.3051-5.704 31.3746-5.705c65.1843-9.809 117.7773-29.496 159.5173-52.453-9.67 33.67-27.062 52.732-27.062 52.732 29.357 0 49.671-23.236 60.941-41.115l3.2 9.392-4.8 5.565c-3.27 3.757-4.87 8.696-4.453 13.636l4.383 54.958c0 36.522-13.635 69.219-35.131 91.063h58.575c30.888-.07 53.358-29.218 45.358-58.993z" fill="#5d3eb3"/><path d="m358.018 276.316-60.689-182.7521h-.262c-8.632-22.4433-23.674-42.4656-43.031-56.9262-22.301-16.6198-48.722-25.3877-76.451-25.3877-27.794 0-54.28 8.7679-76.45 25.3877-19.423 14.526-34.5299 34.5483-43.097 57.057h-.3924l-55.84982 183.4723-.1962.589c-4.12006 17.274-.19619 35.137 10.79062 49.074 10.9869 13.937 27.4672 21.92 45.19 21.92h244.8498c18.05 0 34.661-8.179 45.648-22.509 10.987-14.329 14.583-32.52 9.94-49.925zm-26.551 37.166c-6.998 9.095-17.527 14.33-29.037 14.33h-49.768c16.284-21.266 26.159-49.729 26.159-81.006l-4.381-55.224c-.393-4.973 1.242-9.946 4.512-13.741l4.84-5.627-3.205-9.423c-11.314 17.994-31.718 41.354-61.212 41.354 0 0 17.461-19.172 27.14-53.001-41.986 23.098-94.762 42.859-160.2251 52.739l-31.5218 5.758 31.4564 5.758-4.9703 31.473c0 31.277 9.9405 59.74 26.1588 81.005h-49.8328c-11.2484 0-21.7121-5.104-28.7097-13.937-6.9322-8.768-9.4173-20.022-6.9322-30.884l51.2066-168.227h.0654l2.2889-7.393c6.6052-21.3314 20.1426-40.4376 38.1268-53.8513 18.573-13.8716 40.678-21.2001 63.959-21.2001 23.217 0 45.321 7.3285 63.894 21.2001 17.919 13.4137 31.522 32.5199 38.127 53.7853l2.289 7.394h.327l55.654 167.441c2.812 10.797.457 22.247-6.409 31.277z" fill="#fff"/></svg>