<?xml version="1.0" encoding="utf-8"?>
<!-- Generator: Adobe Illustrator 24.0.1, SVG Export Plug-In . SVG Version: 6.00 Build 0)  -->
<svg version="1.1" id="Layer_1" xmlns="http://www.w3.org/2000/svg" xmlns:xlink="http://www.w3.org/1999/xlink" x="0px" y="0px"
	 viewBox="0 0 911.5 336.2" style="enable-background:new 0 0 911.5 336.2;" xml:space="preserve">
<style type="text/css">
	.st0{fill:#FFFFFF;}
</style>
<path class="st0" d="M163.1,91.7c-39.3,0-71.2,31.9-71.2,71.2v81.4h36.7c-7.4-8.2-11.9-19.1-11.9-31v-35c48.5,0,88.3-7.9,92.4-18
	h0.4v53c0,11.9-4.5,22.8-11.9,31h36.7v-81.4C234.2,123.6,202.4,91.7,163.1,91.7z"/>
<path class="st0" d="M369.3,244.2H362l-13.4-29.3h-49.7l-13.4,29.3h-7.3l42.3-91.9h6.6L369.3,244.2z M346,208.7l-22.2-48.5
	l-22.2,48.5H346z"/>
<path class="st0" d="M562.7,228.4h-39l-6.1,15.8h-24.4l39.1-92h21.9l39,92h-24.4L562.7,228.4z M555.2,209.3l-12-31l-12,31H555.2z"/>
<path class="st0" d="M398.8,240.4c9.6,0,17.4-4.5,17.4-13c0-4.8-2.7-8.4-8.8-10.7l-18.2-6.9c-7.9-3.1-11.7-7.6-11.7-15.2
	c0-10.9,9.2-17.4,21.9-17.4c7.6,0,14.8,2.3,20.1,6.7v6.2c-5.6-5-13-7.9-20.1-7.9c-9.1,0-16,4.2-16,12c0,4.9,2.4,8.3,8.7,10.5
	l18.2,6.9c8.3,3.3,12,8.1,12,14.9c0,12.1-10.2,18.7-23.5,18.7c-8.7,0-17-2.2-23.1-7.2v-6.7C382.4,237.7,390.6,240.4,398.8,240.4z"/>
<path class="st0" d="M621.9,244.3h-22.6v-65.4h22.6v6.3c4.6-4.7,10.7-7.7,18.2-7.7c14.7,0,24,11.4,24,26.1v40.7h-22.6v-33.9
	c0-7-2.8-11.3-8.7-11.3c-6.8,0-10.9,5.4-10.9,12.3V244.3z"/>
<path class="st0" d="M698.2,244.3h-22.6v-65.4h22.6v6.3c4.6-4.7,10.7-7.7,18.2-7.7c14.7,0,24,11.4,24,26.1v40.7h-22.6v-33.9
	c0-7-2.8-11.3-8.7-11.3c-6.8,0-10.9,5.4-10.9,12.3V244.3z"/>
<path class="st0" d="M797,238.3c-4.1,4.6-9.7,7.4-16.8,7.4c-19.2,0-32.4-14.3-32.4-33.8c0-19.7,13-34.4,32.4-34.4
	c7,0,12.7,2.8,16.8,7.5v-6.1h22.6v65.4H797V238.3z M770.9,211.9c0,7.5,5.5,13,12.9,13c7.5,0,13.2-5.4,13.2-13
	c0-7.9-5.6-13.7-13.2-13.7C776.2,198.2,770.9,204,770.9,211.9z"/>
<polygon class="st0" points="485.4,178.2 478.2,178.2 443,212.3 443,152.2 437.2,152.2 437.2,244.2 443,244.2 443,219.3 
	454.4,208.2 482,244.2 489.4,244.2 458.7,204.3 "/>
</svg>
